<?xml version="1.0" encoding="UTF-8"?> <svg xmlns="http://www.w3.org/2000/svg" xmlns:xlink="http://www.w3.org/1999/xlink" id="Layer_1" version="1.1" viewBox="0 0 1051.7 435.2"><defs><style> .st0 { fill: #1b3b69; } .st1 { fill: #fff; } .st2 { fill: #0a75bc; } </style></defs><rect class="st2" y="0" width="311.2" height="435.1"></rect><rect class="st2" x="699.2" y="0" width="352.5" height="435.1"></rect><rect class="st0" x="311.3" width="386.5" height="435.1"></rect><path class="st1" d="M544.3,203.6h-14.7v-110.5h28c32.5,0,47.2,11.8,47.2,51.7,1.4,56-22.1,58.8-60.5,58.8M647.5,346.7c-7.3-4.5-10.4-22.1-8.8-41.3,2.9-65-23.5-81.1-63.4-93v-1.4c32.5-2.9,70.7-13.3,70.7-66.4s-10.4-59.1-75.2-59.1h-103.2v8.8h25.1v112.2h-94.4v-112.2h23.5v-8.8h-87.1v8.8h25.1v254h-25.1v7.3h87.1v-8.8h-23.5v-132.9h94.4v132.9h-25.1v8.8h88.5v-8.8h-26.6v-132.9h16.1c42.7,0,45.8,31.1,47.2,50.1,2.9,25.1,4.5,57.4,5.9,65,5.9,20.7,25.1,35.4,47.2,33.9,10.4-1.4,20.7-2.9,31.1-7.4v-10.4c-10.4,4.5-22.3,5.9-29.6,1.4"></path><polygon class="st1" points="973.4 93 1000 93 1000 82.8 924.8 82.8 865.7 287.8 808.3 82.8 733.1 82.8 733.1 93 759.6 93 759.6 346.7 733.1 346.7 733.1 355.7 799.5 355.7 799.5 346.7 771.5 346.7 771.5 100.4 772.9 100.4 846.7 355.7 858.4 355.7 933.6 100.4 935.2 100.4 935.2 346.7 907.2 346.7 907.2 355.7 1000 355.7 1000 346.7 973.4 346.7 973.4 93"></polygon><path class="st1" d="M94.4,339.3c20.6,13.3,44.4,20.6,69.3,20.6,63.4,0,103.2-36.8,103.2-82.5s-20.7-61.9-70.7-76.6c-19.2-5.9-36.8-10.4-50.1-14.7-29.4-8.8-53.2-20.6-53.2-51.7s29.5-45.8,60.5-45.8c42.7-2.9,78.3,28,84,69.3h16.1v-75.2h-8.8l-19.2,16.1c-20.6-13.3-45.8-20.6-70.7-20.6-50.1,0-88.5,31.1-88.5,73.8s26.6,60.5,72.4,70.7c10.4,2.9,19.2,5.9,29.4,7.3,44.3,11.9,72.3,23.5,72.3,61.9s-33.9,56-72.3,56-79.7-35.4-89.9-73.8h-14.7v81.1h8.8l22.1-15.9h0Z"></path></svg> 